<mxfile host="app.diagrams.net" modified="2023-10-29T17:03:44.761Z" agent="Mozilla/5.0 (Macintosh; Intel Mac OS X 10_15_7) AppleWebKit/537.36 (KHTML, like Gecko) Chrome/117.0.0.0 Safari/537.36" etag="oDFmRdGBdwSYcbMkBFf3" version="22.0.8" type="device">
  <diagram name="Page-1" id="IXIDI4k3THO09DJzsEaA">
    <mxGraphModel dx="2230" dy="325" grid="1" gridSize="10" guides="1" tooltips="1" connect="1" arrows="1" fold="1" page="1" pageScale="1" pageWidth="850" pageHeight="1100" math="0" shadow="0">
      <root>
        <mxCell id="0" />
        <mxCell id="1" parent="0" />
        <mxCell id="EKQFESstINDMdlB6yE32-22" value="Backend" style="shape=umlFrame;whiteSpace=wrap;html=1;pointerEvents=0;" vertex="1" parent="1">
          <mxGeometry x="160" y="200" width="890" height="520" as="geometry" />
        </mxCell>
        <mxCell id="EKQFESstINDMdlB6yE32-25" value="«NGINX»&lt;br&gt;&lt;b&gt;Reverse Proxy&lt;/b&gt;" style="html=1;dropTarget=0;whiteSpace=wrap;" vertex="1" parent="1">
          <mxGeometry x="240" y="360" width="160" height="80" as="geometry" />
        </mxCell>
        <mxCell id="EKQFESstINDMdlB6yE32-26" value="" style="shape=module;jettyWidth=8;jettyHeight=4;" vertex="1" parent="EKQFESstINDMdlB6yE32-25">
          <mxGeometry x="1" width="20" height="20" relative="1" as="geometry">
            <mxPoint x="-27" y="7" as="offset" />
          </mxGeometry>
        </mxCell>
        <mxCell id="EKQFESstINDMdlB6yE32-27" value="«REST»&lt;br&gt;&lt;b&gt;Stocks API&lt;/b&gt;" style="html=1;dropTarget=0;whiteSpace=wrap;" vertex="1" parent="1">
          <mxGeometry x="510" y="360" width="160" height="80" as="geometry" />
        </mxCell>
        <mxCell id="EKQFESstINDMdlB6yE32-28" value="" style="shape=module;jettyWidth=8;jettyHeight=4;" vertex="1" parent="EKQFESstINDMdlB6yE32-27">
          <mxGeometry x="1" width="20" height="20" relative="1" as="geometry">
            <mxPoint x="-27" y="7" as="offset" />
          </mxGeometry>
        </mxCell>
        <mxCell id="EKQFESstINDMdlB6yE32-34" style="edgeStyle=orthogonalEdgeStyle;rounded=0;orthogonalLoop=1;jettySize=auto;html=1;entryX=0;entryY=0.5;entryDx=0;entryDy=0;endArrow=none;endFill=0;" edge="1" parent="1" source="EKQFESstINDMdlB6yE32-33" target="EKQFESstINDMdlB6yE32-27">
          <mxGeometry relative="1" as="geometry" />
        </mxCell>
        <mxCell id="EKQFESstINDMdlB6yE32-35" style="edgeStyle=orthogonalEdgeStyle;rounded=0;orthogonalLoop=1;jettySize=auto;html=1;entryX=1;entryY=0.5;entryDx=0;entryDy=0;endArrow=none;endFill=0;" edge="1" parent="1" source="EKQFESstINDMdlB6yE32-33" target="EKQFESstINDMdlB6yE32-25">
          <mxGeometry relative="1" as="geometry" />
        </mxCell>
        <mxCell id="EKQFESstINDMdlB6yE32-33" value="" style="shape=providedRequiredInterface;html=1;verticalLabelPosition=bottom;sketch=0;rotation=-180;" vertex="1" parent="1">
          <mxGeometry x="450" y="390" width="20" height="20" as="geometry" />
        </mxCell>
        <mxCell id="EKQFESstINDMdlB6yE32-37" value="Stocks DB" style="strokeWidth=1;html=1;shape=mxgraph.flowchart.database;whiteSpace=wrap;" vertex="1" parent="1">
          <mxGeometry x="550" y="210" width="80" height="80" as="geometry" />
        </mxCell>
        <mxCell id="EKQFESstINDMdlB6yE32-41" style="edgeStyle=orthogonalEdgeStyle;rounded=0;orthogonalLoop=1;jettySize=auto;html=1;endArrow=none;endFill=0;" edge="1" parent="1" source="EKQFESstINDMdlB6yE32-39" target="EKQFESstINDMdlB6yE32-27">
          <mxGeometry relative="1" as="geometry" />
        </mxCell>
        <mxCell id="EKQFESstINDMdlB6yE32-39" value="" style="shape=providedRequiredInterface;html=1;verticalLabelPosition=bottom;sketch=0;rotation=90;" vertex="1" parent="1">
          <mxGeometry x="580" y="310" width="20" height="20" as="geometry" />
        </mxCell>
        <mxCell id="EKQFESstINDMdlB6yE32-40" style="edgeStyle=orthogonalEdgeStyle;rounded=0;orthogonalLoop=1;jettySize=auto;html=1;entryX=0;entryY=0.5;entryDx=0;entryDy=0;entryPerimeter=0;endArrow=none;endFill=0;" edge="1" parent="1" source="EKQFESstINDMdlB6yE32-37" target="EKQFESstINDMdlB6yE32-39">
          <mxGeometry relative="1" as="geometry" />
        </mxCell>
        <mxCell id="EKQFESstINDMdlB6yE32-50" style="edgeStyle=orthogonalEdgeStyle;rounded=0;orthogonalLoop=1;jettySize=auto;html=1;entryX=0;entryY=0.5;entryDx=0;entryDy=0;endArrow=none;endFill=0;" edge="1" parent="1" source="EKQFESstINDMdlB6yE32-44" target="EKQFESstINDMdlB6yE32-49">
          <mxGeometry relative="1" as="geometry" />
        </mxCell>
        <mxCell id="EKQFESstINDMdlB6yE32-44" value="«MQTT Subscriber»&lt;br style=&quot;border-color: var(--border-color);&quot;&gt;&lt;b style=&quot;border-color: var(--border-color);&quot;&gt;Stocks Listener&lt;/b&gt;" style="html=1;dropTarget=0;whiteSpace=wrap;" vertex="1" parent="1">
          <mxGeometry x="820" y="360" width="160" height="80" as="geometry" />
        </mxCell>
        <mxCell id="EKQFESstINDMdlB6yE32-45" value="" style="shape=module;jettyWidth=8;jettyHeight=4;" vertex="1" parent="EKQFESstINDMdlB6yE32-44">
          <mxGeometry x="1" width="20" height="20" relative="1" as="geometry">
            <mxPoint x="-27" y="7" as="offset" />
          </mxGeometry>
        </mxCell>
        <mxCell id="EKQFESstINDMdlB6yE32-48" style="edgeStyle=orthogonalEdgeStyle;rounded=0;orthogonalLoop=1;jettySize=auto;html=1;entryX=0;entryY=0.5;entryDx=0;entryDy=0;endArrow=none;endFill=0;" edge="1" parent="1" source="EKQFESstINDMdlB6yE32-46" target="EKQFESstINDMdlB6yE32-44">
          <mxGeometry relative="1" as="geometry" />
        </mxCell>
        <mxCell id="EKQFESstINDMdlB6yE32-46" value="" style="shape=providedRequiredInterface;html=1;verticalLabelPosition=bottom;sketch=0;" vertex="1" parent="1">
          <mxGeometry x="730" y="390" width="20" height="20" as="geometry" />
        </mxCell>
        <mxCell id="EKQFESstINDMdlB6yE32-47" style="edgeStyle=orthogonalEdgeStyle;rounded=0;orthogonalLoop=1;jettySize=auto;html=1;entryX=0;entryY=0.5;entryDx=0;entryDy=0;entryPerimeter=0;endArrow=none;endFill=0;" edge="1" parent="1" source="EKQFESstINDMdlB6yE32-27" target="EKQFESstINDMdlB6yE32-46">
          <mxGeometry relative="1" as="geometry" />
        </mxCell>
        <mxCell id="EKQFESstINDMdlB6yE32-49" value="" style="whiteSpace=wrap;html=1;aspect=fixed;" vertex="1" parent="1">
          <mxGeometry x="1040" y="390" width="20" height="20" as="geometry" />
        </mxCell>
        <mxCell id="EKQFESstINDMdlB6yE32-54" value="«MQTT Broker»&lt;br&gt;&lt;b&gt;Stocks Broker&lt;/b&gt;" style="html=1;dropTarget=0;whiteSpace=wrap;" vertex="1" parent="1">
          <mxGeometry x="1170" y="360" width="160" height="80" as="geometry" />
        </mxCell>
        <mxCell id="EKQFESstINDMdlB6yE32-55" value="" style="shape=module;jettyWidth=8;jettyHeight=4;" vertex="1" parent="EKQFESstINDMdlB6yE32-54">
          <mxGeometry x="1" width="20" height="20" relative="1" as="geometry">
            <mxPoint x="-27" y="7" as="offset" />
          </mxGeometry>
        </mxCell>
        <mxCell id="EKQFESstINDMdlB6yE32-58" style="edgeStyle=orthogonalEdgeStyle;rounded=0;orthogonalLoop=1;jettySize=auto;html=1;entryX=0;entryY=0.5;entryDx=0;entryDy=0;endArrow=none;endFill=0;" edge="1" parent="1" source="EKQFESstINDMdlB6yE32-56" target="EKQFESstINDMdlB6yE32-54">
          <mxGeometry relative="1" as="geometry" />
        </mxCell>
        <mxCell id="EKQFESstINDMdlB6yE32-56" value="" style="shape=providedRequiredInterface;html=1;verticalLabelPosition=bottom;sketch=0;rotation=-180;" vertex="1" parent="1">
          <mxGeometry x="1100" y="390" width="20" height="20" as="geometry" />
        </mxCell>
        <mxCell id="EKQFESstINDMdlB6yE32-57" style="edgeStyle=orthogonalEdgeStyle;rounded=0;orthogonalLoop=1;jettySize=auto;html=1;entryX=1;entryY=0.5;entryDx=0;entryDy=0;entryPerimeter=0;endArrow=none;endFill=0;" edge="1" parent="1" source="EKQFESstINDMdlB6yE32-49" target="EKQFESstINDMdlB6yE32-56">
          <mxGeometry relative="1" as="geometry" />
        </mxCell>
        <mxCell id="EKQFESstINDMdlB6yE32-59" value="«system»&lt;br&gt;&lt;b&gt;JobsMaster&lt;/b&gt;" style="html=1;dropTarget=0;whiteSpace=wrap;" vertex="1" parent="1">
          <mxGeometry x="510" y="570" width="160" height="80" as="geometry" />
        </mxCell>
        <mxCell id="EKQFESstINDMdlB6yE32-60" value="" style="shape=module;jettyWidth=8;jettyHeight=4;" vertex="1" parent="EKQFESstINDMdlB6yE32-59">
          <mxGeometry x="1" width="20" height="20" relative="1" as="geometry">
            <mxPoint x="-27" y="7" as="offset" />
          </mxGeometry>
        </mxCell>
        <mxCell id="EKQFESstINDMdlB6yE32-70" style="edgeStyle=orthogonalEdgeStyle;rounded=0;orthogonalLoop=1;jettySize=auto;html=1;entryX=0.5;entryY=0;entryDx=0;entryDy=0;endArrow=none;endFill=0;" edge="1" parent="1" source="EKQFESstINDMdlB6yE32-61" target="EKQFESstINDMdlB6yE32-59">
          <mxGeometry relative="1" as="geometry" />
        </mxCell>
        <mxCell id="EKQFESstINDMdlB6yE32-61" value="" style="shape=providedRequiredInterface;html=1;verticalLabelPosition=bottom;sketch=0;rotation=-90;" vertex="1" parent="1">
          <mxGeometry x="580" y="500" width="20" height="20" as="geometry" />
        </mxCell>
        <mxCell id="EKQFESstINDMdlB6yE32-72" style="edgeStyle=orthogonalEdgeStyle;rounded=0;orthogonalLoop=1;jettySize=auto;html=1;entryX=0;entryY=0.5;entryDx=0;entryDy=0;endArrow=none;endFill=0;" edge="1" parent="1" source="EKQFESstINDMdlB6yE32-62" target="EKQFESstINDMdlB6yE32-63">
          <mxGeometry relative="1" as="geometry" />
        </mxCell>
        <mxCell id="EKQFESstINDMdlB6yE32-62" value="" style="shape=providedRequiredInterface;html=1;verticalLabelPosition=bottom;sketch=0;" vertex="1" parent="1">
          <mxGeometry x="730" y="600" width="20" height="20" as="geometry" />
        </mxCell>
        <mxCell id="EKQFESstINDMdlB6yE32-63" value="«system»&lt;br&gt;&lt;b&gt;JobsMaster&lt;/b&gt;" style="html=1;dropTarget=0;whiteSpace=wrap;" vertex="1" parent="1">
          <mxGeometry x="800" y="570" width="160" height="80" as="geometry" />
        </mxCell>
        <mxCell id="EKQFESstINDMdlB6yE32-64" value="" style="shape=module;jettyWidth=8;jettyHeight=4;" vertex="1" parent="EKQFESstINDMdlB6yE32-63">
          <mxGeometry x="1" width="20" height="20" relative="1" as="geometry">
            <mxPoint x="-27" y="7" as="offset" />
          </mxGeometry>
        </mxCell>
        <mxCell id="EKQFESstINDMdlB6yE32-65" value="«system»&lt;br&gt;&lt;b&gt;JobsMaster&lt;/b&gt;" style="html=1;dropTarget=0;whiteSpace=wrap;" vertex="1" parent="1">
          <mxGeometry x="810" y="580" width="160" height="80" as="geometry" />
        </mxCell>
        <mxCell id="EKQFESstINDMdlB6yE32-66" value="" style="shape=module;jettyWidth=8;jettyHeight=4;" vertex="1" parent="EKQFESstINDMdlB6yE32-65">
          <mxGeometry x="1" width="20" height="20" relative="1" as="geometry">
            <mxPoint x="-27" y="7" as="offset" />
          </mxGeometry>
        </mxCell>
        <mxCell id="EKQFESstINDMdlB6yE32-67" value="«subsystem»&lt;br&gt;&lt;b&gt;Worker&lt;/b&gt;" style="html=1;dropTarget=0;whiteSpace=wrap;" vertex="1" parent="1">
          <mxGeometry x="820" y="590" width="160" height="80" as="geometry" />
        </mxCell>
        <mxCell id="EKQFESstINDMdlB6yE32-68" value="" style="shape=module;jettyWidth=8;jettyHeight=4;" vertex="1" parent="EKQFESstINDMdlB6yE32-67">
          <mxGeometry x="1" width="20" height="20" relative="1" as="geometry">
            <mxPoint x="-27" y="7" as="offset" />
          </mxGeometry>
        </mxCell>
        <mxCell id="EKQFESstINDMdlB6yE32-69" style="edgeStyle=orthogonalEdgeStyle;rounded=0;orthogonalLoop=1;jettySize=auto;html=1;entryX=1;entryY=0.5;entryDx=0;entryDy=0;entryPerimeter=0;endArrow=none;endFill=0;" edge="1" parent="1" source="EKQFESstINDMdlB6yE32-27" target="EKQFESstINDMdlB6yE32-61">
          <mxGeometry relative="1" as="geometry" />
        </mxCell>
        <mxCell id="EKQFESstINDMdlB6yE32-71" style="edgeStyle=orthogonalEdgeStyle;rounded=0;orthogonalLoop=1;jettySize=auto;html=1;entryX=0;entryY=0.5;entryDx=0;entryDy=0;entryPerimeter=0;endArrow=none;endFill=0;" edge="1" parent="1" source="EKQFESstINDMdlB6yE32-59" target="EKQFESstINDMdlB6yE32-62">
          <mxGeometry relative="1" as="geometry" />
        </mxCell>
        <mxCell id="EKQFESstINDMdlB6yE32-73" value="«system»&lt;br&gt;&lt;b&gt;API Gateway&lt;/b&gt;" style="html=1;dropTarget=0;whiteSpace=wrap;" vertex="1" parent="1">
          <mxGeometry x="-75" y="270" width="110" height="260" as="geometry" />
        </mxCell>
        <mxCell id="EKQFESstINDMdlB6yE32-74" value="" style="shape=module;jettyWidth=8;jettyHeight=4;" vertex="1" parent="EKQFESstINDMdlB6yE32-73">
          <mxGeometry x="1" width="20" height="20" relative="1" as="geometry">
            <mxPoint x="-27" y="7" as="offset" />
          </mxGeometry>
        </mxCell>
        <mxCell id="EKQFESstINDMdlB6yE32-80" style="edgeStyle=orthogonalEdgeStyle;rounded=0;orthogonalLoop=1;jettySize=auto;html=1;entryX=0;entryY=0.5;entryDx=0;entryDy=0;endArrow=none;endFill=0;" edge="1" parent="1" source="EKQFESstINDMdlB6yE32-75" target="EKQFESstINDMdlB6yE32-25">
          <mxGeometry relative="1" as="geometry" />
        </mxCell>
        <mxCell id="EKQFESstINDMdlB6yE32-75" value="" style="whiteSpace=wrap;html=1;aspect=fixed;" vertex="1" parent="1">
          <mxGeometry x="150" y="390" width="20" height="20" as="geometry" />
        </mxCell>
        <mxCell id="EKQFESstINDMdlB6yE32-81" style="edgeStyle=orthogonalEdgeStyle;rounded=0;orthogonalLoop=1;jettySize=auto;html=1;entryX=0;entryY=0.5;entryDx=0;entryDy=0;endArrow=none;endFill=0;" edge="1" parent="1" source="EKQFESstINDMdlB6yE32-76" target="EKQFESstINDMdlB6yE32-75">
          <mxGeometry relative="1" as="geometry" />
        </mxCell>
        <mxCell id="EKQFESstINDMdlB6yE32-76" value="" style="shape=providedRequiredInterface;html=1;verticalLabelPosition=bottom;sketch=0;rotation=-180;" vertex="1" parent="1">
          <mxGeometry x="80" y="390" width="20" height="20" as="geometry" />
        </mxCell>
        <mxCell id="EKQFESstINDMdlB6yE32-82" style="edgeStyle=orthogonalEdgeStyle;rounded=0;orthogonalLoop=1;jettySize=auto;html=1;entryX=1;entryY=0.5;entryDx=0;entryDy=0;entryPerimeter=0;endArrow=none;endFill=0;" edge="1" parent="1" source="EKQFESstINDMdlB6yE32-73" target="EKQFESstINDMdlB6yE32-76">
          <mxGeometry relative="1" as="geometry" />
        </mxCell>
        <mxCell id="EKQFESstINDMdlB6yE32-83" value="«service»&lt;br&gt;&lt;b&gt;Custom Auth&lt;/b&gt;" style="html=1;dropTarget=0;whiteSpace=wrap;" vertex="1" parent="1">
          <mxGeometry x="-100" y="610" width="160" height="80" as="geometry" />
        </mxCell>
        <mxCell id="EKQFESstINDMdlB6yE32-84" value="" style="shape=module;jettyWidth=8;jettyHeight=4;" vertex="1" parent="EKQFESstINDMdlB6yE32-83">
          <mxGeometry x="1" width="20" height="20" relative="1" as="geometry">
            <mxPoint x="-27" y="7" as="offset" />
          </mxGeometry>
        </mxCell>
        <mxCell id="EKQFESstINDMdlB6yE32-87" style="edgeStyle=orthogonalEdgeStyle;rounded=0;orthogonalLoop=1;jettySize=auto;html=1;entryX=0.5;entryY=1;entryDx=0;entryDy=0;endArrow=none;endFill=0;" edge="1" parent="1" source="EKQFESstINDMdlB6yE32-85" target="EKQFESstINDMdlB6yE32-73">
          <mxGeometry relative="1" as="geometry" />
        </mxCell>
        <mxCell id="EKQFESstINDMdlB6yE32-85" value="" style="shape=providedRequiredInterface;html=1;verticalLabelPosition=bottom;sketch=0;rotation=-90;" vertex="1" parent="1">
          <mxGeometry x="-30" y="560" width="20" height="20" as="geometry" />
        </mxCell>
        <mxCell id="EKQFESstINDMdlB6yE32-86" style="edgeStyle=orthogonalEdgeStyle;rounded=0;orthogonalLoop=1;jettySize=auto;html=1;entryX=0;entryY=0.5;entryDx=0;entryDy=0;entryPerimeter=0;endArrow=none;endFill=0;" edge="1" parent="1" source="EKQFESstINDMdlB6yE32-83" target="EKQFESstINDMdlB6yE32-85">
          <mxGeometry relative="1" as="geometry" />
        </mxCell>
        <mxCell id="EKQFESstINDMdlB6yE32-88" value="«system»&lt;br&gt;&lt;b&gt;CloudFront&lt;/b&gt;" style="html=1;dropTarget=0;whiteSpace=wrap;" vertex="1" parent="1">
          <mxGeometry x="-360" y="360" width="160" height="80" as="geometry" />
        </mxCell>
        <mxCell id="EKQFESstINDMdlB6yE32-89" value="" style="shape=module;jettyWidth=8;jettyHeight=4;" vertex="1" parent="EKQFESstINDMdlB6yE32-88">
          <mxGeometry x="1" width="20" height="20" relative="1" as="geometry">
            <mxPoint x="-27" y="7" as="offset" />
          </mxGeometry>
        </mxCell>
        <mxCell id="EKQFESstINDMdlB6yE32-93" style="edgeStyle=orthogonalEdgeStyle;rounded=0;orthogonalLoop=1;jettySize=auto;html=1;entryX=0;entryY=0.5;entryDx=0;entryDy=0;endArrow=none;endFill=0;" edge="1" parent="1" source="EKQFESstINDMdlB6yE32-90" target="EKQFESstINDMdlB6yE32-73">
          <mxGeometry relative="1" as="geometry" />
        </mxCell>
        <mxCell id="EKQFESstINDMdlB6yE32-90" value="" style="shape=providedRequiredInterface;html=1;verticalLabelPosition=bottom;sketch=0;" vertex="1" parent="1">
          <mxGeometry x="-140" y="390" width="20" height="20" as="geometry" />
        </mxCell>
        <mxCell id="EKQFESstINDMdlB6yE32-94" style="edgeStyle=orthogonalEdgeStyle;rounded=0;orthogonalLoop=1;jettySize=auto;html=1;entryX=0;entryY=0.5;entryDx=0;entryDy=0;entryPerimeter=0;endArrow=none;endFill=0;" edge="1" parent="1" source="EKQFESstINDMdlB6yE32-88" target="EKQFESstINDMdlB6yE32-90">
          <mxGeometry relative="1" as="geometry" />
        </mxCell>
        <mxCell id="EKQFESstINDMdlB6yE32-95" value="Frontend" style="shape=umlFrame;whiteSpace=wrap;html=1;pointerEvents=0;" vertex="1" parent="1">
          <mxGeometry x="-990" y="180" width="500" height="500" as="geometry" />
        </mxCell>
        <mxCell id="EKQFESstINDMdlB6yE32-96" value="" style="whiteSpace=wrap;html=1;aspect=fixed;" vertex="1" parent="1">
          <mxGeometry x="-500" y="390" width="20" height="20" as="geometry" />
        </mxCell>
        <mxCell id="EKQFESstINDMdlB6yE32-99" style="edgeStyle=orthogonalEdgeStyle;rounded=0;orthogonalLoop=1;jettySize=auto;html=1;entryX=0;entryY=0.5;entryDx=0;entryDy=0;endArrow=none;endFill=0;" edge="1" parent="1" source="EKQFESstINDMdlB6yE32-97" target="EKQFESstINDMdlB6yE32-88">
          <mxGeometry relative="1" as="geometry" />
        </mxCell>
        <mxCell id="EKQFESstINDMdlB6yE32-97" value="" style="shape=providedRequiredInterface;html=1;verticalLabelPosition=bottom;sketch=0;" vertex="1" parent="1">
          <mxGeometry x="-430" y="390" width="20" height="20" as="geometry" />
        </mxCell>
        <mxCell id="EKQFESstINDMdlB6yE32-98" style="edgeStyle=orthogonalEdgeStyle;rounded=0;orthogonalLoop=1;jettySize=auto;html=1;entryX=0;entryY=0.5;entryDx=0;entryDy=0;entryPerimeter=0;endArrow=none;endFill=0;" edge="1" parent="1" source="EKQFESstINDMdlB6yE32-96" target="EKQFESstINDMdlB6yE32-97">
          <mxGeometry relative="1" as="geometry" />
        </mxCell>
        <mxCell id="EKQFESstINDMdlB6yE32-101" style="edgeStyle=orthogonalEdgeStyle;rounded=0;orthogonalLoop=1;jettySize=auto;html=1;entryX=0;entryY=0.5;entryDx=0;entryDy=0;endArrow=none;endFill=0;" edge="1" parent="1" source="EKQFESstINDMdlB6yE32-100" target="EKQFESstINDMdlB6yE32-96">
          <mxGeometry relative="1" as="geometry" />
        </mxCell>
        <mxCell id="EKQFESstINDMdlB6yE32-100" value="Amazon S3" style="sketch=0;outlineConnect=0;fontColor=#232F3E;gradientColor=none;fillColor=#000000;strokeColor=none;dashed=0;verticalLabelPosition=bottom;verticalAlign=top;align=center;html=1;fontSize=12;fontStyle=0;aspect=fixed;pointerEvents=1;shape=mxgraph.aws4.bucket;strokeWidth=1;perimeterSpacing=0;fillStyle=auto;" vertex="1" parent="1">
          <mxGeometry x="-630" y="366" width="65.38" height="68" as="geometry" />
        </mxCell>
        <mxCell id="EKQFESstINDMdlB6yE32-124" style="edgeStyle=orthogonalEdgeStyle;rounded=0;orthogonalLoop=1;jettySize=auto;html=1;entryX=1;entryY=0.5;entryDx=0;entryDy=0;endArrow=none;endFill=0;" edge="1" parent="1" source="EKQFESstINDMdlB6yE32-104" target="EKQFESstINDMdlB6yE32-123">
          <mxGeometry relative="1" as="geometry" />
        </mxCell>
        <mxCell id="EKQFESstINDMdlB6yE32-104" value="«UI»&lt;br&gt;&lt;b&gt;WebPage&lt;/b&gt;" style="html=1;dropTarget=0;whiteSpace=wrap;" vertex="1" parent="1">
          <mxGeometry x="-900" y="360" width="160" height="80" as="geometry" />
        </mxCell>
        <mxCell id="EKQFESstINDMdlB6yE32-105" value="" style="shape=module;jettyWidth=8;jettyHeight=4;" vertex="1" parent="EKQFESstINDMdlB6yE32-104">
          <mxGeometry x="1" width="20" height="20" relative="1" as="geometry">
            <mxPoint x="-27" y="7" as="offset" />
          </mxGeometry>
        </mxCell>
        <mxCell id="EKQFESstINDMdlB6yE32-108" style="edgeStyle=orthogonalEdgeStyle;rounded=0;orthogonalLoop=1;jettySize=auto;html=1;endArrow=none;endFill=0;" edge="1" parent="1" source="EKQFESstINDMdlB6yE32-106" target="EKQFESstINDMdlB6yE32-100">
          <mxGeometry relative="1" as="geometry" />
        </mxCell>
        <mxCell id="EKQFESstINDMdlB6yE32-106" value="" style="shape=providedRequiredInterface;html=1;verticalLabelPosition=bottom;sketch=0;" vertex="1" parent="1">
          <mxGeometry x="-690" y="390" width="20" height="20" as="geometry" />
        </mxCell>
        <mxCell id="EKQFESstINDMdlB6yE32-107" style="edgeStyle=orthogonalEdgeStyle;rounded=0;orthogonalLoop=1;jettySize=auto;html=1;entryX=0;entryY=0.5;entryDx=0;entryDy=0;entryPerimeter=0;endArrow=none;endFill=0;" edge="1" parent="1" source="EKQFESstINDMdlB6yE32-104" target="EKQFESstINDMdlB6yE32-106">
          <mxGeometry relative="1" as="geometry" />
        </mxCell>
        <mxCell id="EKQFESstINDMdlB6yE32-115" style="edgeStyle=orthogonalEdgeStyle;rounded=0;orthogonalLoop=1;jettySize=auto;html=1;entryX=0.5;entryY=0;entryDx=0;entryDy=0;endArrow=none;endFill=0;" edge="1" parent="1" source="EKQFESstINDMdlB6yE32-109" target="EKQFESstINDMdlB6yE32-114">
          <mxGeometry relative="1" as="geometry" />
        </mxCell>
        <mxCell id="EKQFESstINDMdlB6yE32-109" value="«component»&lt;br&gt;&lt;b&gt;Payment Manager&lt;/b&gt;" style="html=1;dropTarget=0;whiteSpace=wrap;" vertex="1" parent="1">
          <mxGeometry x="-900" y="540" width="160" height="80" as="geometry" />
        </mxCell>
        <mxCell id="EKQFESstINDMdlB6yE32-110" value="" style="shape=module;jettyWidth=8;jettyHeight=4;" vertex="1" parent="EKQFESstINDMdlB6yE32-109">
          <mxGeometry x="1" width="20" height="20" relative="1" as="geometry">
            <mxPoint x="-27" y="7" as="offset" />
          </mxGeometry>
        </mxCell>
        <mxCell id="EKQFESstINDMdlB6yE32-111" value="" style="shape=providedRequiredInterface;html=1;verticalLabelPosition=bottom;sketch=0;rotation=-90;" vertex="1" parent="1">
          <mxGeometry x="-830" y="480" width="20" height="20" as="geometry" />
        </mxCell>
        <mxCell id="EKQFESstINDMdlB6yE32-112" style="edgeStyle=orthogonalEdgeStyle;rounded=0;orthogonalLoop=1;jettySize=auto;html=1;entryX=0;entryY=0.5;entryDx=0;entryDy=0;entryPerimeter=0;endArrow=none;endFill=0;" edge="1" parent="1" source="EKQFESstINDMdlB6yE32-109" target="EKQFESstINDMdlB6yE32-111">
          <mxGeometry relative="1" as="geometry" />
        </mxCell>
        <mxCell id="EKQFESstINDMdlB6yE32-113" style="edgeStyle=orthogonalEdgeStyle;rounded=0;orthogonalLoop=1;jettySize=auto;html=1;entryX=1;entryY=0.5;entryDx=0;entryDy=0;entryPerimeter=0;endArrow=none;endFill=0;" edge="1" parent="1" source="EKQFESstINDMdlB6yE32-104" target="EKQFESstINDMdlB6yE32-111">
          <mxGeometry relative="1" as="geometry" />
        </mxCell>
        <mxCell id="EKQFESstINDMdlB6yE32-114" value="" style="whiteSpace=wrap;html=1;aspect=fixed;" vertex="1" parent="1">
          <mxGeometry x="-830" y="670" width="20" height="20" as="geometry" />
        </mxCell>
        <mxCell id="EKQFESstINDMdlB6yE32-116" value="«service»&lt;br&gt;&lt;b&gt;WebPay&lt;/b&gt;" style="html=1;dropTarget=0;whiteSpace=wrap;" vertex="1" parent="1">
          <mxGeometry x="-900" y="780" width="160" height="80" as="geometry" />
        </mxCell>
        <mxCell id="EKQFESstINDMdlB6yE32-117" value="" style="shape=module;jettyWidth=8;jettyHeight=4;" vertex="1" parent="EKQFESstINDMdlB6yE32-116">
          <mxGeometry x="1" width="20" height="20" relative="1" as="geometry">
            <mxPoint x="-27" y="7" as="offset" />
          </mxGeometry>
        </mxCell>
        <mxCell id="EKQFESstINDMdlB6yE32-120" style="edgeStyle=orthogonalEdgeStyle;rounded=0;orthogonalLoop=1;jettySize=auto;html=1;entryX=0.5;entryY=1;entryDx=0;entryDy=0;endArrow=none;endFill=0;" edge="1" parent="1" source="EKQFESstINDMdlB6yE32-118" target="EKQFESstINDMdlB6yE32-114">
          <mxGeometry relative="1" as="geometry" />
        </mxCell>
        <mxCell id="EKQFESstINDMdlB6yE32-118" value="" style="shape=providedRequiredInterface;html=1;verticalLabelPosition=bottom;sketch=0;rotation=-90;" vertex="1" parent="1">
          <mxGeometry x="-830" y="720" width="20" height="20" as="geometry" />
        </mxCell>
        <mxCell id="EKQFESstINDMdlB6yE32-119" style="edgeStyle=orthogonalEdgeStyle;rounded=0;orthogonalLoop=1;jettySize=auto;html=1;entryX=0;entryY=0.5;entryDx=0;entryDy=0;entryPerimeter=0;endArrow=none;endFill=0;" edge="1" parent="1" source="EKQFESstINDMdlB6yE32-116" target="EKQFESstINDMdlB6yE32-118">
          <mxGeometry relative="1" as="geometry" />
        </mxCell>
        <mxCell id="EKQFESstINDMdlB6yE32-121" value="«service»&lt;br&gt;&lt;b&gt;Auth0&lt;/b&gt;" style="html=1;dropTarget=0;whiteSpace=wrap;" vertex="1" parent="1">
          <mxGeometry x="-1240" y="360" width="160" height="80" as="geometry" />
        </mxCell>
        <mxCell id="EKQFESstINDMdlB6yE32-122" value="" style="shape=module;jettyWidth=8;jettyHeight=4;" vertex="1" parent="EKQFESstINDMdlB6yE32-121">
          <mxGeometry x="1" width="20" height="20" relative="1" as="geometry">
            <mxPoint x="-27" y="7" as="offset" />
          </mxGeometry>
        </mxCell>
        <mxCell id="EKQFESstINDMdlB6yE32-123" value="" style="whiteSpace=wrap;html=1;aspect=fixed;" vertex="1" parent="1">
          <mxGeometry x="-1000" y="390" width="20" height="20" as="geometry" />
        </mxCell>
        <mxCell id="EKQFESstINDMdlB6yE32-127" style="edgeStyle=orthogonalEdgeStyle;rounded=0;orthogonalLoop=1;jettySize=auto;html=1;entryX=0;entryY=0.5;entryDx=0;entryDy=0;endArrow=none;endFill=0;" edge="1" parent="1" source="EKQFESstINDMdlB6yE32-125" target="EKQFESstINDMdlB6yE32-123">
          <mxGeometry relative="1" as="geometry" />
        </mxCell>
        <mxCell id="EKQFESstINDMdlB6yE32-125" value="" style="shape=providedRequiredInterface;html=1;verticalLabelPosition=bottom;sketch=0;" vertex="1" parent="1">
          <mxGeometry x="-1050" y="390" width="20" height="20" as="geometry" />
        </mxCell>
        <mxCell id="EKQFESstINDMdlB6yE32-126" style="edgeStyle=orthogonalEdgeStyle;rounded=0;orthogonalLoop=1;jettySize=auto;html=1;entryX=0;entryY=0.5;entryDx=0;entryDy=0;entryPerimeter=0;endArrow=none;endFill=0;" edge="1" parent="1" source="EKQFESstINDMdlB6yE32-121" target="EKQFESstINDMdlB6yE32-125">
          <mxGeometry relative="1" as="geometry" />
        </mxCell>
        <mxCell id="EKQFESstINDMdlB6yE32-131" value="generatePDF" style="sketch=0;outlineConnect=0;fontColor=#232F3E;gradientColor=none;fillColor=#000000;strokeColor=none;dashed=0;verticalLabelPosition=bottom;verticalAlign=top;align=center;html=1;fontSize=12;fontStyle=0;aspect=fixed;pointerEvents=1;shape=mxgraph.aws4.lambda_function;" vertex="1" parent="1">
          <mxGeometry x="-844" y="210" width="48" height="48" as="geometry" />
        </mxCell>
        <mxCell id="EKQFESstINDMdlB6yE32-137" style="edgeStyle=orthogonalEdgeStyle;rounded=0;orthogonalLoop=1;jettySize=auto;html=1;entryX=0.5;entryY=0;entryDx=0;entryDy=0;endArrow=none;endFill=0;" edge="1" parent="1" source="EKQFESstINDMdlB6yE32-136" target="EKQFESstINDMdlB6yE32-104">
          <mxGeometry relative="1" as="geometry" />
        </mxCell>
        <mxCell id="EKQFESstINDMdlB6yE32-138" style="edgeStyle=orthogonalEdgeStyle;rounded=0;orthogonalLoop=1;jettySize=auto;html=1;endArrow=none;endFill=0;" edge="1" parent="1" source="EKQFESstINDMdlB6yE32-136" target="EKQFESstINDMdlB6yE32-131">
          <mxGeometry relative="1" as="geometry" />
        </mxCell>
        <mxCell id="EKQFESstINDMdlB6yE32-136" value="" style="shape=providedRequiredInterface;html=1;verticalLabelPosition=bottom;sketch=0;rotation=-90;" vertex="1" parent="1">
          <mxGeometry x="-830" y="300" width="20" height="20" as="geometry" />
        </mxCell>
        <mxCell id="EKQFESstINDMdlB6yE32-139" value="" style="shape=providedRequiredInterface;html=1;verticalLabelPosition=bottom;sketch=0;rotation=-90;" vertex="1" parent="1">
          <mxGeometry x="-607.31" y="258" width="20" height="20" as="geometry" />
        </mxCell>
        <mxCell id="EKQFESstINDMdlB6yE32-141" style="edgeStyle=orthogonalEdgeStyle;rounded=0;orthogonalLoop=1;jettySize=auto;html=1;entryX=0;entryY=0.5;entryDx=0;entryDy=0;entryPerimeter=0;endArrow=none;endFill=0;" edge="1" parent="1" source="EKQFESstINDMdlB6yE32-100" target="EKQFESstINDMdlB6yE32-139">
          <mxGeometry relative="1" as="geometry" />
        </mxCell>
        <mxCell id="EKQFESstINDMdlB6yE32-144" style="edgeStyle=orthogonalEdgeStyle;rounded=0;orthogonalLoop=1;jettySize=auto;html=1;entryX=1;entryY=0.5;entryDx=0;entryDy=0;entryPerimeter=0;endArrow=none;endFill=0;" edge="1" parent="1" source="EKQFESstINDMdlB6yE32-131" target="EKQFESstINDMdlB6yE32-139">
          <mxGeometry relative="1" as="geometry" />
        </mxCell>
        <mxCell id="EKQFESstINDMdlB6yE32-145" value="IManageJobs" style="text;html=1;align=center;verticalAlign=middle;resizable=0;points=[];autosize=1;strokeColor=none;fillColor=none;" vertex="1" parent="1">
          <mxGeometry x="590" y="495" width="100" height="30" as="geometry" />
        </mxCell>
        <mxCell id="EKQFESstINDMdlB6yE32-146" value="ISaveStocks" style="text;html=1;align=center;verticalAlign=middle;resizable=0;points=[];autosize=1;strokeColor=none;fillColor=none;" vertex="1" parent="1">
          <mxGeometry x="590" y="305" width="90" height="30" as="geometry" />
        </mxCell>
        <mxCell id="EKQFESstINDMdlB6yE32-147" value="IReceiveStocks" style="text;html=1;align=center;verticalAlign=middle;resizable=0;points=[];autosize=1;strokeColor=none;fillColor=none;" vertex="1" parent="1">
          <mxGeometry x="685" y="360" width="110" height="30" as="geometry" />
        </mxCell>
        <mxCell id="EKQFESstINDMdlB6yE32-148" value="IListenStocks" style="text;html=1;align=center;verticalAlign=middle;resizable=0;points=[];autosize=1;strokeColor=none;fillColor=none;" vertex="1" parent="1">
          <mxGeometry x="1065" y="360" width="90" height="30" as="geometry" />
        </mxCell>
        <mxCell id="EKQFESstINDMdlB6yE32-149" value="IDoJobs" style="text;html=1;align=center;verticalAlign=middle;resizable=0;points=[];autosize=1;strokeColor=none;fillColor=none;" vertex="1" parent="1">
          <mxGeometry x="705" y="570" width="70" height="30" as="geometry" />
        </mxCell>
      </root>
    </mxGraphModel>
  </diagram>
</mxfile>
